<svg width="25" height="24" viewBox="0 0 25 24" fill="none" xmlns="http://www.w3.org/2000/svg">
<g clip-path="url(#clip0_65_1872)">
<path d="M22.8789 1.1319C23.1883 0.955093 23.5687 0.956007 23.877 1.13483C24.1852 1.31374 24.375 1.64363 24.375 2.00006V18.0001C24.375 18.3589 24.1826 18.6902 23.8711 18.8682L16.8711 22.8682C16.8681 22.8699 16.8644 22.8704 16.8613 22.8721C16.7972 22.908 16.7291 22.9369 16.6572 22.9581C16.6414 22.9628 16.6254 22.9669 16.6094 22.9708C16.5897 22.9755 16.5699 22.9799 16.5498 22.9835C16.5342 22.9862 16.5186 22.9883 16.5029 22.9903C16.48 22.9932 16.457 22.9958 16.4336 22.9971C16.4176 22.9981 16.4017 22.9989 16.3857 22.9991C16.3822 22.9991 16.3786 23.0001 16.375 23.0001C16.3556 23.0001 16.3365 22.9982 16.3174 22.9971C16.3034 22.9963 16.2893 22.9966 16.2754 22.9952C16.2379 22.9915 16.2012 22.9844 16.165 22.9766C16.1572 22.9749 16.1494 22.9727 16.1416 22.9708C16.1118 22.9636 16.0824 22.9561 16.0537 22.9464C16.0445 22.9432 16.0355 22.94 16.0264 22.9366C15.9983 22.9261 15.9711 22.9142 15.9443 22.9014C15.939 22.8989 15.9331 22.8973 15.9277 22.8946L8.40625 19.1339L1.87109 22.8682C1.56163 23.0451 1.18134 23.0442 0.873047 22.8653C0.564754 22.6864 0.375 22.3565 0.375 22.0001V6.00006C0.375031 5.64124 0.567357 5.30993 0.878906 5.1319L7.87891 1.1319L7.8877 1.12702C7.95093 1.09165 8.01811 1.06216 8.08887 1.04108C8.09332 1.03975 8.09807 1.03942 8.10254 1.03815C8.13164 1.02992 8.16129 1.02323 8.19141 1.01764C8.19693 1.01661 8.20247 1.01565 8.20801 1.01471C8.23663 1.0099 8.26553 1.00532 8.29492 1.00299C8.30336 1.00231 8.31186 1.00248 8.32031 1.00202C8.33842 1.00104 8.35664 1.00006 8.375 1.00006C8.38284 1.00006 8.39064 1.00086 8.39844 1.00104C8.40723 1.00124 8.41601 1.00158 8.4248 1.00202C8.45045 1.00328 8.47588 1.00472 8.50098 1.00788C8.51408 1.00953 8.52699 1.01253 8.54004 1.01471C8.56012 1.01805 8.57995 1.02192 8.59961 1.02643C8.61199 1.02928 8.62443 1.03189 8.63672 1.03522C8.64879 1.03849 8.66097 1.04128 8.67285 1.04499L8.72266 1.06256C8.72798 1.06454 8.73298 1.06733 8.73828 1.0694C8.75683 1.07664 8.77498 1.08454 8.79297 1.09284C8.80261 1.09728 8.81273 1.10076 8.82227 1.10553L16.3438 4.86628L22.8789 1.1319ZM9.375 17.3819L15.375 20.3819V6.61823L9.375 3.61823V17.3819ZM17.375 6.58014V20.2764L22.375 17.419V3.72272L17.375 6.58014ZM2.375 6.58014V20.2764L7.375 17.419V3.72272L2.375 6.58014Z" fill="#8E8E8E"/>
</g>
<defs>
<clipPath id="clip0_65_1872">
<rect width="24" height="24" fill="white" transform="translate(0.375)"/>
</clipPath>
</defs>
</svg>
