<svg width="25" height="24" viewBox="0 0 25 24" fill="none" xmlns="http://www.w3.org/2000/svg">
<path d="M11.625 2C16.5956 2 20.625 6.02944 20.625 11C20.625 13.125 19.8869 15.0766 18.6553 16.6162L22.332 20.293C22.7222 20.6835 22.7224 21.3166 22.332 21.707C21.9416 22.0974 21.3085 22.0972 20.918 21.707L17.2412 18.0303C15.7016 19.2619 13.75 20 11.625 20C6.65444 20 2.625 15.9706 2.625 11C2.625 6.02944 6.65444 2 11.625 2ZM11.625 4C7.75901 4 4.625 7.13401 4.625 11C4.625 14.866 7.75901 18 11.625 18C13.515 18 15.2288 17.2497 16.4883 16.0322C16.5127 16.0012 16.5398 15.9719 16.5684 15.9434C16.5969 15.9148 16.6262 15.8877 16.6572 15.8633C17.8747 14.6038 18.625 12.89 18.625 11C18.625 7.13401 15.491 4 11.625 4Z" fill="#8E8E8E"/>
</svg>
