<svg width="25" height="24" viewBox="0 0 25 24" fill="none" xmlns="http://www.w3.org/2000/svg">
<path d="M16.125 14C17.4511 14 18.7225 14.5272 19.6602 15.4648C20.5978 16.4025 21.125 17.6739 21.125 19V21C21.125 21.5523 20.6773 22 20.125 22C19.5727 22 19.125 21.5523 19.125 21V19C19.125 18.2044 18.8087 17.4415 18.2461 16.8789C17.7539 16.3867 17.1085 16.0829 16.4219 16.0146L16.125 16H8.125C7.32935 16 6.56652 16.3163 6.00391 16.8789C5.4413 17.4415 5.125 18.2044 5.125 19V21C5.125 21.5523 4.67728 22 4.125 22C3.57272 22 3.125 21.5523 3.125 21V19C3.125 17.6739 3.65216 16.4025 4.58984 15.4648C5.52753 14.5272 6.79892 14 8.125 14H16.125ZM12.125 2C14.8864 2 17.125 4.23858 17.125 7C17.125 9.76142 14.8864 12 12.125 12C9.36358 12 7.125 9.76142 7.125 7C7.125 4.23858 9.36358 2 12.125 2ZM12.125 4C10.4681 4 9.125 5.34315 9.125 7C9.125 8.65685 10.4681 10 12.125 10C13.7819 10 15.125 8.65685 15.125 7C15.125 5.34315 13.7819 4 12.125 4Z" fill="#8E8E8E"/>
</svg>
