<svg width="20" height="20" viewBox="0 0 20 20" fill="none" xmlns="http://www.w3.org/2000/svg">
<g clip-path="url(#clip0_65_1605)">
<path d="M10 0.833008L10.4717 0.845703C15.3151 1.09121 19.167 5.09559 19.167 10C19.167 15.0626 15.0626 19.167 10 19.167C4.93739 19.167 0.833008 15.0626 0.833008 10C0.833008 4.93739 4.93739 0.833008 10 0.833008ZM2.54688 10.833C2.89116 13.9482 5.14265 16.487 8.1084 17.2578C6.8358 15.3453 6.06485 13.1361 5.87793 10.833H2.54688ZM14.1221 10.833C13.9351 13.1363 13.1634 15.3452 11.8906 17.2578C14.8568 16.4873 17.1088 13.9485 17.4531 10.833H14.1221ZM7.5498 10.833C7.75939 13.0927 8.60974 15.245 10 17.0371C11.3902 15.245 12.2398 13.0927 12.4492 10.833H7.5498ZM11.8906 2.74121C13.1637 4.65396 13.9351 6.86347 14.1221 9.16699H17.4531C17.1088 6.05139 14.8569 3.51164 11.8906 2.74121ZM10 2.96191C8.60951 4.75415 7.75934 6.90704 7.5498 9.16699H12.4492C12.2398 6.90705 11.3905 4.75414 10 2.96191ZM8.1084 2.74121C5.14253 3.51193 2.89117 6.05171 2.54688 9.16699H5.87793C6.06487 6.86365 6.83553 4.65385 8.1084 2.74121Z" fill="#1D1D1D"/>
</g>
<defs>
<clipPath id="clip0_65_1605">
<rect width="20" height="20" fill="white"/>
</clipPath>
</defs>
</svg>
