<svg width="25" height="24" viewBox="0 0 25 24" fill="none" xmlns="http://www.w3.org/2000/svg">
<path d="M12.2607 1.21051C12.6218 0.929829 13.1282 0.929829 13.4893 1.21051L22.4893 8.21051C22.7325 8.3999 22.8749 8.69126 22.875 8.99958V19.9996C22.875 20.7951 22.5586 21.5581 21.9961 22.1207C21.4335 22.6833 20.6707 22.9996 19.875 22.9996H5.875C5.07935 22.9996 4.31651 22.6833 3.75391 22.1207C3.19141 21.5581 2.875 20.7951 2.875 19.9996V8.99958C2.87511 8.69126 3.01746 8.3999 3.26074 8.21051L12.2607 1.21051ZM4.875 9.48786V19.9996C4.875 20.2647 4.98054 20.5191 5.16797 20.7066C5.35551 20.8941 5.60978 20.9996 5.875 20.9996H8.875V11.9996C8.87519 11.4475 9.32283 10.9996 9.875 10.9996H15.875C16.4272 10.9996 16.8748 11.4475 16.875 11.9996V20.9996H19.875C20.1402 20.9996 20.3945 20.8941 20.582 20.7066C20.7695 20.5191 20.875 20.2647 20.875 19.9996V9.48786L12.875 3.26618L4.875 9.48786ZM10.875 20.9996H14.875V12.9996H10.875V20.9996Z" fill="#1BBD12"/>
</svg>
