<svg width="16" height="16" viewBox="0 0 16 16" fill="none" xmlns="http://www.w3.org/2000/svg">
<g clip-path="url(#clip0_65_1601)">
<path d="M8 0C9.76796 0 11.4637 0.70211 12.7139 1.95215C13.9641 3.20239 14.667 4.89888 14.667 6.66699C14.6669 9.26815 13.0099 11.5967 11.4834 13.208C10.7065 14.028 9.93218 14.6957 9.35254 15.1572C9.06256 15.3881 8.81984 15.5686 8.64844 15.6924C8.56288 15.7542 8.4946 15.8022 8.44727 15.835C8.42369 15.8513 8.40457 15.8642 8.3916 15.873C8.38521 15.8774 8.37961 15.8813 8.37598 15.8838C8.37445 15.8848 8.37308 15.886 8.37207 15.8867L8.37012 15.8877C8.17404 16.0184 7.9258 16.0347 7.7168 15.9365L7.62988 15.8877L7.62793 15.8867C7.62692 15.886 7.62555 15.8848 7.62402 15.8838C7.62039 15.8813 7.61479 15.8774 7.6084 15.873C7.59543 15.8642 7.57631 15.8513 7.55273 15.835C7.5054 15.8022 7.43712 15.7542 7.35156 15.6924C7.18016 15.5686 6.93744 15.3881 6.64746 15.1572C6.06782 14.6957 5.29345 14.028 4.5166 13.208C2.99014 11.5967 1.33315 9.26815 1.33301 6.66699C1.33301 4.89888 2.03589 3.20239 3.28613 1.95215C4.53634 0.70211 6.23204 6.31227e-08 8 0ZM8 1.33301C6.58551 1.33301 5.22871 1.89531 4.22852 2.89551C3.22842 3.89569 2.66699 5.25258 2.66699 6.66699C2.66713 8.73223 4.01001 10.7367 5.4834 12.292C6.20648 13.0552 6.93221 13.68 7.47754 14.1143C7.68016 14.2756 7.85814 14.4088 8 14.5137C8.14186 14.4088 8.31984 14.2756 8.52246 14.1143C9.06779 13.68 9.79352 13.0552 10.5166 12.292C11.99 10.7367 13.3329 8.73223 13.333 6.66699C13.333 5.25258 12.7716 3.89569 11.7715 2.89551C10.7713 1.89531 9.41449 1.33301 8 1.33301ZM8 4C9.47276 4 10.667 5.19423 10.667 6.66699C10.6668 8.1396 9.47265 9.33301 8 9.33301C6.52735 9.33301 5.33318 8.1396 5.33301 6.66699C5.33301 5.19423 6.52724 4 8 4ZM8 5.33301C7.26362 5.33301 6.66699 5.93061 6.66699 6.66699C6.66717 7.40322 7.26373 8 8 8C8.73627 8 9.33283 7.40322 9.33301 6.66699C9.33301 5.93061 8.73638 5.33301 8 5.33301Z" fill="#1BBD12"/>
</g>
<defs>
<clipPath id="clip0_65_1601">
<rect width="16" height="16" fill="white"/>
</clipPath>
</defs>
</svg>
