<svg width="40" height="40" viewBox="0 0 40 40" fill="none" xmlns="http://www.w3.org/2000/svg">
<path d="M19.4118 13.5775C19.7372 13.2522 20.2641 13.2521 20.5895 13.5775C20.9149 13.9029 20.9148 14.4298 20.5895 14.7553L16.1784 19.1664H25.8336C26.2938 19.1664 26.6674 19.5393 26.6676 19.9994C26.6676 20.4596 26.2939 20.8334 25.8336 20.8334H16.1793L20.5895 25.2435L20.6471 25.307C20.9141 25.6343 20.8946 26.1172 20.5895 26.4223C20.2844 26.7273 19.8025 26.7458 19.4752 26.4789L19.4118 26.4223L13.5778 20.5893C13.5395 20.5509 13.5055 20.5084 13.4752 20.4633C13.4681 20.4527 13.4613 20.4419 13.4547 20.431C13.4201 20.3739 13.392 20.3125 13.3717 20.2475C13.3147 20.0638 13.3221 19.8642 13.3952 19.685C13.4374 19.5814 13.5 19.4883 13.5778 19.4105L19.4118 13.5775Z" fill="#1D1D1D"/>
</svg>
