<svg width="24" height="24" viewBox="0 0 24 24" fill="none" xmlns="http://www.w3.org/2000/svg">
<path d="M16.9502 1.99805C17.804 1.99807 18.6497 2.16634 19.4385 2.49316C20.2269 2.81991 20.9434 3.29877 21.5469 3.90234C22.1508 4.50595 22.6302 5.22293 22.957 6.01172C23.2838 6.80048 23.4521 7.64621 23.4521 8.5C23.4521 9.35375 23.2838 10.1995 22.957 10.9883C22.6302 11.7769 22.1506 12.4932 21.5469 13.0967L12.707 21.9365C12.3165 22.327 11.6835 22.327 11.293 21.9365L2.45312 13.0967C1.23399 11.8775 0.548862 10.2242 0.548828 8.5C0.548862 6.7758 1.23393 5.12154 2.45312 3.90234C3.67224 2.68343 5.32585 1.99911 7.0498 1.99902C8.77396 1.99906 10.4283 2.6832 11.6475 3.90234L12 4.25488L12.3525 3.90234C12.9561 3.29858 13.6732 2.81996 14.4619 2.49316C15.2507 2.16636 16.0964 1.99805 16.9502 1.99805ZM16.9502 3.99805C16.3591 3.99805 15.7736 4.11458 15.2275 4.34082C14.6816 4.56702 14.1854 4.89852 13.7676 5.31641L12.707 6.37695C12.3165 6.76739 11.6835 6.76745 11.293 6.37695L10.2334 5.31738C9.38927 4.47326 8.24358 3.99906 7.0498 3.99902C5.85616 3.99911 4.71126 4.47338 3.86719 5.31738C3.0232 6.16149 2.54886 7.30633 2.54883 8.5C2.54886 9.69373 3.02312 10.8385 3.86719 11.6826L12 19.8154L20.1328 11.6826L20.2861 11.5225C20.6327 11.1401 20.9114 10.7004 21.1094 10.2227C21.3356 9.67663 21.4521 9.09103 21.4521 8.5C21.4521 7.90895 21.3356 7.32338 21.1094 6.77734C20.8831 6.23127 20.5509 5.73526 20.1328 5.31738C19.715 4.89946 19.2188 4.56706 18.6729 4.34082C18.1268 4.11457 17.5413 3.99807 16.9502 3.99805Z" fill="white"/>
</svg>
