<svg width="20" height="20" viewBox="0 0 20 20" fill="none" xmlns="http://www.w3.org/2000/svg">
<path d="M15 0.833008C16.8409 0.833008 18.333 2.32604 18.333 4.16699C18.3328 6.00779 16.8408 7.5 15 7.5C14.0734 7.5 13.235 7.12203 12.6309 6.51172L8.20703 9.09375C8.28833 9.38202 8.33301 9.68572 8.33301 10C8.33301 10.3135 8.28893 10.6166 8.20801 10.9043L12.6338 13.4844C13.2377 12.8761 14.0751 12.5 15 12.5C16.8408 12.5 18.3328 13.9922 18.333 15.833C18.333 17.674 16.8409 19.167 15 19.167C13.1591 19.167 11.667 17.674 11.667 15.833C11.667 15.5177 11.7112 15.2129 11.793 14.9238L7.36816 12.3457C6.76409 12.9555 5.92619 13.333 5 13.333C3.15905 13.333 1.66699 11.8409 1.66699 10C1.66699 8.15905 3.15905 6.66699 5 6.66699C5.92594 6.66699 6.76412 7.04378 7.36816 7.65332L11.792 5.07324C11.7107 4.78506 11.667 4.48117 11.667 4.16699C11.667 2.32604 13.1591 0.833008 15 0.833008ZM15 14.167C14.4213 14.167 13.9111 14.4614 13.6123 14.9092C13.5997 14.9378 13.5864 14.9665 13.5703 14.9941C13.5541 15.022 13.5354 15.048 13.5166 15.0732C13.3996 15.3011 13.3331 15.5593 13.333 15.833C13.333 16.7535 14.0795 17.5 15 17.5C15.9205 17.5 16.667 16.7535 16.667 15.833C16.6668 14.9127 15.9204 14.167 15 14.167ZM5 8.33301C4.07953 8.33301 3.33301 9.07952 3.33301 10C3.33301 10.9205 4.07953 11.667 5 11.667C5.92047 11.667 6.66699 10.9205 6.66699 10C6.66699 9.69941 6.58552 9.41831 6.44629 9.1748C6.44373 9.1706 6.44097 9.16638 6.43848 9.16211C6.43738 9.16023 6.43663 9.15814 6.43555 9.15625C6.1458 8.66433 5.61222 8.33301 5 8.33301ZM15 2.5C14.0795 2.5 13.333 3.24652 13.333 4.16699C13.3331 4.46786 13.4142 4.74953 13.5537 4.99316C13.5561 4.99717 13.5592 5.00083 13.5615 5.00488C13.5624 5.00637 13.5626 5.00828 13.5635 5.00977C13.8531 5.50219 14.3874 5.83301 15 5.83301C15.9204 5.83301 16.6668 5.08732 16.667 4.16699C16.667 3.24652 15.9205 2.5 15 2.5Z" fill="#555555"/>
</svg>
