<svg width="20" height="20" viewBox="0 0 20 20" fill="none" xmlns="http://www.w3.org/2000/svg">
<path d="M9.16699 1.66699C13.309 1.66717 16.667 5.02497 16.667 9.16699C16.6669 10.9378 16.0508 12.5637 15.0244 13.8467L18.0889 16.9102C18.4143 17.2356 18.4143 17.7634 18.0889 18.0889C17.7634 18.4143 17.2356 18.4143 16.9102 18.0889L13.8467 15.0244C12.5637 16.0508 10.9378 16.6669 9.16699 16.667C5.02497 16.667 1.66717 13.309 1.66699 9.16699C1.66699 5.02486 5.02486 1.66699 9.16699 1.66699ZM9.16699 3.33301C5.94533 3.33301 3.33301 5.94533 3.33301 9.16699C3.33318 12.3885 5.94544 15 9.16699 15C10.7439 14.9999 12.1728 14.3722 13.2227 13.3555C13.242 13.3312 13.2637 13.3086 13.2861 13.2861C13.3086 13.2637 13.3312 13.242 13.3555 13.2227C14.3722 12.1728 14.9999 10.7439 15 9.16699C15 5.94544 12.3885 3.33318 9.16699 3.33301Z" fill="#1D1D1D"/>
</svg>
