<svg width="84" height="13" viewBox="0 0 84 13" fill="none" xmlns="http://www.w3.org/2000/svg">
<path d="M9.83275 8.06H6.10875L4.98875 6.884V12.54H1.90875V2.404L0.984748 0.528H9.66475L10.2247 3.118H4.98875V5.47H9.27275L9.83275 8.06ZM12.1818 3.37C12.1818 2.84733 12.2938 2.39467 12.5178 2.012C12.7418 1.62933 13.0498 1.312 13.4418 1.06C13.8431 0.807999 14.3145 0.621333 14.8558 0.499999C15.3971 0.378666 15.9898 0.318 16.6338 0.318C17.2778 0.318 17.8705 0.378666 18.4118 0.499999C18.9531 0.621333 19.4198 0.807999 19.8118 1.06C20.2131 1.312 20.5258 1.62933 20.7498 2.012C20.9738 2.39467 21.0858 2.84733 21.0858 3.37V9.712C21.0858 10.2347 20.9738 10.6873 20.7498 11.07C20.5258 11.4527 20.2131 11.77 19.8118 12.022C19.4198 12.274 18.9531 12.4607 18.4118 12.582C17.8705 12.7033 17.2778 12.764 16.6338 12.764C15.9898 12.764 15.3971 12.7033 14.8558 12.582C14.3145 12.4607 13.8431 12.274 13.4418 12.022C13.0498 11.77 12.7418 11.4527 12.5178 11.07C12.2938 10.6873 12.1818 10.2347 12.1818 9.712V3.37ZM15.2618 9.054C15.2618 9.42733 15.3971 9.70733 15.6678 9.894C15.9385 10.0807 16.2605 10.174 16.6338 10.174C17.0071 10.174 17.3291 10.0807 17.5998 9.894C17.8705 9.70733 18.0058 9.42733 18.0058 9.054V4.028C18.0058 3.65467 17.8705 3.37467 17.5998 3.188C17.3291 3.00133 17.0071 2.908 16.6338 2.908C16.2605 2.908 15.9385 3.00133 15.6678 3.188C15.3971 3.37467 15.2618 3.65467 15.2618 4.028V9.054ZM23.74 3.37C23.74 2.84733 23.852 2.39467 24.076 2.012C24.3 1.62933 24.608 1.312 25 1.06C25.4013 0.807999 25.8727 0.621333 26.414 0.499999C26.9553 0.378666 27.548 0.318 28.192 0.318C28.836 0.318 29.4287 0.378666 29.97 0.499999C30.5113 0.621333 30.978 0.807999 31.37 1.06C31.7713 1.312 32.084 1.62933 32.308 2.012C32.532 2.39467 32.644 2.84733 32.644 3.37V9.712C32.644 10.2347 32.532 10.6873 32.308 11.07C32.084 11.4527 31.7713 11.77 31.37 12.022C30.978 12.274 30.5113 12.4607 29.97 12.582C29.4287 12.7033 28.836 12.764 28.192 12.764C27.548 12.764 26.9553 12.7033 26.414 12.582C25.8727 12.4607 25.4013 12.274 25 12.022C24.608 11.77 24.3 11.4527 24.076 11.07C23.852 10.6873 23.74 10.2347 23.74 9.712V3.37ZM26.82 9.054C26.82 9.42733 26.9553 9.70733 27.226 9.894C27.4967 10.0807 27.8187 10.174 28.192 10.174C28.5653 10.174 28.8873 10.0807 29.158 9.894C29.4287 9.70733 29.564 9.42733 29.564 9.054V4.028C29.564 3.65467 29.4287 3.37467 29.158 3.188C28.8873 3.00133 28.5653 2.908 28.192 2.908C27.8187 2.908 27.4967 3.00133 27.226 3.188C26.9553 3.37467 26.82 3.65467 26.82 4.028V9.054ZM39.5122 0.528C40.1562 0.528 40.7489 0.583999 41.2902 0.695999C41.8315 0.798666 42.2982 0.966666 42.6902 1.2C43.0915 1.43333 43.4042 1.73667 43.6282 2.11C43.8522 2.474 43.9642 2.91733 43.9642 3.44V9.642C43.9642 10.1647 43.8522 10.6127 43.6282 10.986C43.4042 11.35 43.0915 11.6487 42.6902 11.882C42.2982 12.1153 41.8315 12.2833 41.2902 12.386C40.7489 12.498 40.1562 12.554 39.5122 12.554H36.8102C36.6049 12.554 36.4322 12.4793 36.2922 12.33L35.5082 11.504C35.3682 11.3547 35.2982 11.182 35.2982 10.986V2.404L34.3742 0.528H39.5122ZM38.3782 3.118V9.964H39.5122C39.9322 9.964 40.2915 9.87067 40.5902 9.684C40.8982 9.49733 41.0522 9.21733 41.0522 8.844V4.238C41.0522 3.86467 40.8982 3.58467 40.5902 3.398C40.2915 3.21133 39.9322 3.118 39.5122 3.118H38.3782ZM45.1502 0.528H54.1242V3.118H51.4222V12.554H48.3422V3.118H45.9202L45.1502 0.528ZM56.6509 12.554V2.404L55.7269 0.528H62.6149C63.5856 0.528 64.3183 0.78 64.8129 1.284C65.3076 1.77867 65.5549 2.50667 65.5549 3.468V5.848C65.5549 6.20267 65.5036 6.534 65.4009 6.842C65.3076 7.15 65.1769 7.42067 65.0089 7.654C64.8503 7.878 64.6636 8.06 64.4489 8.2C64.2436 8.33067 64.0289 8.396 63.8049 8.396L65.7649 12.554H62.6149L59.8849 6.282H61.6349C62.2883 6.282 62.6149 5.95533 62.6149 5.302V4.084C62.6149 3.43067 62.2883 3.104 61.6349 3.104H59.5909V12.554H56.6509ZM67.3737 0.528H71.3777V12.54H68.2977V2.404L67.3737 0.528ZM80.4267 0.528C81.444 0.528 82.186 0.775333 82.6527 1.27C83.1287 1.75533 83.3667 2.488 83.3667 3.468V5.638C83.3667 6.618 83.1287 7.35533 82.6527 7.85C82.186 8.33533 81.444 8.578 80.4267 8.578H78.6767L77.6547 6.002H79.4467C80.1 6.002 80.4267 5.67533 80.4267 5.022V4.084C80.4267 3.43067 80.1 3.104 79.4467 3.104H77.4027V12.554H74.4627V2.404L73.5387 0.528H80.4267Z" fill="#1D1D1D"/>
</svg>
